<mxfile host="app.diagrams.net" modified="2023-06-21T14:25:57.238Z" agent="Mozilla/5.0 (Windows NT 10.0; Win64; x64) AppleWebKit/537.36 (KHTML, like Gecko) Chrome/114.0.0.0 Safari/537.36" etag="c6PQU1ZG7Samu9e9ScZg" version="21.5.0" type="github">
  <diagram name="Seite-1" id="YKaK7DZWDzNLWNBRkbz1">
    <mxGraphModel dx="1185" dy="605" grid="1" gridSize="10" guides="1" tooltips="1" connect="1" arrows="1" fold="1" page="1" pageScale="1" pageWidth="1169" pageHeight="827" math="0" shadow="0">
      <root>
        <mxCell id="0" />
        <mxCell id="1" parent="0" />
        <mxCell id="Zl6-PXg4E4sNv89OZCC7-23" style="edgeStyle=orthogonalEdgeStyle;rounded=0;orthogonalLoop=1;jettySize=auto;html=1;exitX=1;exitY=0.5;exitDx=0;exitDy=0;entryX=0;entryY=0.5;entryDx=0;entryDy=0;curved=1;" edge="1" parent="1" source="Zl6-PXg4E4sNv89OZCC7-29" target="Zl6-PXg4E4sNv89OZCC7-30">
          <mxGeometry relative="1" as="geometry" />
        </mxCell>
        <mxCell id="Zl6-PXg4E4sNv89OZCC7-24" style="edgeStyle=orthogonalEdgeStyle;rounded=0;orthogonalLoop=1;jettySize=auto;html=1;exitX=0;exitY=0.5;exitDx=0;exitDy=0;entryX=1;entryY=0.5;entryDx=0;entryDy=0;curved=1;" edge="1" parent="1" source="Zl6-PXg4E4sNv89OZCC7-29" target="Zl6-PXg4E4sNv89OZCC7-35">
          <mxGeometry relative="1" as="geometry" />
        </mxCell>
        <mxCell id="Zl6-PXg4E4sNv89OZCC7-25" style="edgeStyle=orthogonalEdgeStyle;rounded=0;orthogonalLoop=1;jettySize=auto;html=1;exitX=1;exitY=0.5;exitDx=0;exitDy=0;entryX=0;entryY=0.5;entryDx=0;entryDy=0;curved=1;" edge="1" parent="1" source="Zl6-PXg4E4sNv89OZCC7-29" target="Zl6-PXg4E4sNv89OZCC7-31">
          <mxGeometry relative="1" as="geometry" />
        </mxCell>
        <mxCell id="Zl6-PXg4E4sNv89OZCC7-26" style="edgeStyle=orthogonalEdgeStyle;rounded=0;orthogonalLoop=1;jettySize=auto;html=1;exitX=0;exitY=0.5;exitDx=0;exitDy=0;entryX=1;entryY=0.5;entryDx=0;entryDy=0;" edge="1" parent="1" source="Zl6-PXg4E4sNv89OZCC7-29" target="Zl6-PXg4E4sNv89OZCC7-34">
          <mxGeometry relative="1" as="geometry" />
        </mxCell>
        <mxCell id="Zl6-PXg4E4sNv89OZCC7-27" style="edgeStyle=orthogonalEdgeStyle;rounded=0;orthogonalLoop=1;jettySize=auto;html=1;exitX=1;exitY=0.5;exitDx=0;exitDy=0;entryX=0;entryY=0.5;entryDx=0;entryDy=0;curved=1;" edge="1" parent="1" source="Zl6-PXg4E4sNv89OZCC7-29" target="Zl6-PXg4E4sNv89OZCC7-32">
          <mxGeometry relative="1" as="geometry" />
        </mxCell>
        <mxCell id="Zl6-PXg4E4sNv89OZCC7-28" style="edgeStyle=orthogonalEdgeStyle;rounded=0;orthogonalLoop=1;jettySize=auto;html=1;exitX=0;exitY=0.5;exitDx=0;exitDy=0;entryX=1;entryY=0.5;entryDx=0;entryDy=0;curved=1;" edge="1" parent="1" source="Zl6-PXg4E4sNv89OZCC7-29" target="Zl6-PXg4E4sNv89OZCC7-33">
          <mxGeometry relative="1" as="geometry" />
        </mxCell>
        <mxCell id="Zl6-PXg4E4sNv89OZCC7-29" value="System im Verteilerschrank" style="rounded=0;whiteSpace=wrap;html=1;fontStyle=1;fontSize=14;shadow=1;" vertex="1" parent="1">
          <mxGeometry x="400" y="500" width="120" height="40" as="geometry" />
        </mxCell>
        <mxCell id="Zl6-PXg4E4sNv89OZCC7-30" value="Platzersparnis" style="whiteSpace=wrap;html=1;fontSize=14;rounded=0;fontStyle=1;fillColor=#d5e8d4;strokeColor=#82b366;shadow=1;" vertex="1" parent="1">
          <mxGeometry x="600" y="560.02" width="120" height="40" as="geometry" />
        </mxCell>
        <mxCell id="Zl6-PXg4E4sNv89OZCC7-31" value="keine Kabel" style="whiteSpace=wrap;html=1;fontSize=10;rounded=0;fontStyle=1;fillColor=#d5e8d4;strokeColor=#82b366;shadow=1;" vertex="1" parent="1">
          <mxGeometry x="600" y="500" width="120" height="40" as="geometry" />
        </mxCell>
        <mxCell id="Zl6-PXg4E4sNv89OZCC7-32" value="Zugänglichkeit und Sicherheit" style="whiteSpace=wrap;html=1;fontSize=10;rounded=0;fontStyle=1;fillColor=#d5e8d4;strokeColor=#82b366;shadow=1;" vertex="1" parent="1">
          <mxGeometry x="600" y="439.97" width="120" height="40.03" as="geometry" />
        </mxCell>
        <mxCell id="Zl6-PXg4E4sNv89OZCC7-33" value="Elektromagnetische Interferenzen" style="whiteSpace=wrap;html=1;fontSize=12;rounded=0;fontStyle=1;fillColor=#f8cecc;strokeColor=#b85450;shadow=1;" vertex="1" parent="1">
          <mxGeometry x="200" y="440" width="120" height="40" as="geometry" />
        </mxCell>
        <mxCell id="Zl6-PXg4E4sNv89OZCC7-34" value="Wärme-entwicklung" style="whiteSpace=wrap;html=1;fontSize=14;rounded=0;fontStyle=1;fillColor=#f8cecc;strokeColor=#b85450;shadow=1;" vertex="1" parent="1">
          <mxGeometry x="200" y="500" width="120" height="40" as="geometry" />
        </mxCell>
        <mxCell id="Zl6-PXg4E4sNv89OZCC7-35" value="Begrenzter Raum" style="whiteSpace=wrap;html=1;fontSize=14;rounded=0;fontStyle=1;fillColor=#f8cecc;strokeColor=#b85450;shadow=1;" vertex="1" parent="1">
          <mxGeometry x="200" y="560.02" width="120" height="40" as="geometry" />
        </mxCell>
        <mxCell id="Zl6-PXg4E4sNv89OZCC7-36" value="2" style="rounded=0;whiteSpace=wrap;html=1;strokeColor=none;fontSize=18;fontStyle=1;fillColor=none;" vertex="1" parent="1">
          <mxGeometry x="120" y="500" width="40" height="40" as="geometry" />
        </mxCell>
        <mxCell id="Zl6-PXg4E4sNv89OZCC7-37" value="+" style="rounded=0;whiteSpace=wrap;html=1;fillColor=none;strokeColor=none;" vertex="1" parent="1">
          <mxGeometry x="600" y="549.99" width="10" height="10" as="geometry" />
        </mxCell>
        <mxCell id="Zl6-PXg4E4sNv89OZCC7-38" value="+" style="rounded=0;whiteSpace=wrap;html=1;fillColor=none;strokeColor=none;" vertex="1" parent="1">
          <mxGeometry x="600" y="489.97" width="10" height="10" as="geometry" />
        </mxCell>
        <mxCell id="Zl6-PXg4E4sNv89OZCC7-39" value="+" style="rounded=0;whiteSpace=wrap;html=1;fillColor=none;strokeColor=none;" vertex="1" parent="1">
          <mxGeometry x="600" y="430" width="10" height="10" as="geometry" />
        </mxCell>
        <mxCell id="Zl6-PXg4E4sNv89OZCC7-40" value="-" style="rounded=0;whiteSpace=wrap;html=1;fillColor=none;strokeColor=none;fontSize=14;" vertex="1" parent="1">
          <mxGeometry x="200" y="570" width="10" height="10" as="geometry" />
        </mxCell>
        <mxCell id="Zl6-PXg4E4sNv89OZCC7-41" value="-" style="rounded=0;whiteSpace=wrap;html=1;fillColor=none;strokeColor=none;fontSize=14;" vertex="1" parent="1">
          <mxGeometry x="200" y="490" width="10" height="10" as="geometry" />
        </mxCell>
        <mxCell id="Zl6-PXg4E4sNv89OZCC7-42" value="-" style="rounded=0;whiteSpace=wrap;html=1;fillColor=none;strokeColor=none;fontSize=14;" vertex="1" parent="1">
          <mxGeometry x="200" y="430" width="10" height="10" as="geometry" />
        </mxCell>
        <mxCell id="Zl6-PXg4E4sNv89OZCC7-43" style="edgeStyle=orthogonalEdgeStyle;rounded=0;orthogonalLoop=1;jettySize=auto;html=1;exitX=0;exitY=0.5;exitDx=0;exitDy=0;entryX=1;entryY=0.5;entryDx=0;entryDy=0;curved=1;" edge="1" parent="1" source="Zl6-PXg4E4sNv89OZCC7-49" target="Zl6-PXg4E4sNv89OZCC7-54">
          <mxGeometry relative="1" as="geometry" />
        </mxCell>
        <mxCell id="Zl6-PXg4E4sNv89OZCC7-44" style="edgeStyle=orthogonalEdgeStyle;rounded=0;orthogonalLoop=1;jettySize=auto;html=1;exitX=0;exitY=0.5;exitDx=0;exitDy=0;entryX=1;entryY=0.5;entryDx=0;entryDy=0;curved=1;" edge="1" parent="1" source="Zl6-PXg4E4sNv89OZCC7-49" target="Zl6-PXg4E4sNv89OZCC7-53">
          <mxGeometry relative="1" as="geometry" />
        </mxCell>
        <mxCell id="Zl6-PXg4E4sNv89OZCC7-45" style="edgeStyle=orthogonalEdgeStyle;rounded=0;orthogonalLoop=1;jettySize=auto;html=1;exitX=0;exitY=0.5;exitDx=0;exitDy=0;entryX=1;entryY=0.5;entryDx=0;entryDy=0;curved=1;" edge="1" parent="1" source="Zl6-PXg4E4sNv89OZCC7-49" target="Zl6-PXg4E4sNv89OZCC7-55">
          <mxGeometry relative="1" as="geometry" />
        </mxCell>
        <mxCell id="Zl6-PXg4E4sNv89OZCC7-46" style="edgeStyle=orthogonalEdgeStyle;rounded=0;orthogonalLoop=1;jettySize=auto;html=1;exitX=1;exitY=0.5;exitDx=0;exitDy=0;entryX=0;entryY=0.5;entryDx=0;entryDy=0;curved=1;" edge="1" parent="1" source="Zl6-PXg4E4sNv89OZCC7-49" target="Zl6-PXg4E4sNv89OZCC7-51">
          <mxGeometry relative="1" as="geometry" />
        </mxCell>
        <mxCell id="Zl6-PXg4E4sNv89OZCC7-47" style="edgeStyle=orthogonalEdgeStyle;rounded=0;orthogonalLoop=1;jettySize=auto;html=1;exitX=1;exitY=0.5;exitDx=0;exitDy=0;entryX=0;entryY=0.5;entryDx=0;entryDy=0;curved=1;" edge="1" parent="1" source="Zl6-PXg4E4sNv89OZCC7-49" target="Zl6-PXg4E4sNv89OZCC7-52">
          <mxGeometry relative="1" as="geometry" />
        </mxCell>
        <mxCell id="Zl6-PXg4E4sNv89OZCC7-48" style="edgeStyle=orthogonalEdgeStyle;rounded=0;orthogonalLoop=1;jettySize=auto;html=1;exitX=1;exitY=0.5;exitDx=0;exitDy=0;entryX=0;entryY=0.5;entryDx=0;entryDy=0;curved=1;" edge="1" parent="1" source="Zl6-PXg4E4sNv89OZCC7-49" target="Zl6-PXg4E4sNv89OZCC7-50">
          <mxGeometry relative="1" as="geometry" />
        </mxCell>
        <mxCell id="Zl6-PXg4E4sNv89OZCC7-49" value="kabellose Kommunikation" style="rounded=0;whiteSpace=wrap;html=1;fontStyle=1;fontSize=14;shadow=1;" vertex="1" parent="1">
          <mxGeometry x="400" y="260.03" width="120" height="40" as="geometry" />
        </mxCell>
        <mxCell id="Zl6-PXg4E4sNv89OZCC7-50" value="Hohe&amp;nbsp;" style="whiteSpace=wrap;html=1;fontSize=10;rounded=0;fontStyle=1;fillColor=#d5e8d4;strokeColor=#82b366;shadow=1;" vertex="1" parent="1">
          <mxGeometry x="600" y="325.04999999999995" width="120" height="40" as="geometry" />
        </mxCell>
        <mxCell id="Zl6-PXg4E4sNv89OZCC7-51" value="Keine Bauarbeiten durch das Verlegen von Datenkabeln" style="whiteSpace=wrap;html=1;fontSize=10;rounded=0;fontStyle=1;fillColor=#d5e8d4;strokeColor=#82b366;shadow=1;" vertex="1" parent="1">
          <mxGeometry x="600" y="200.02999999999997" width="120" height="40" as="geometry" />
        </mxCell>
        <mxCell id="Zl6-PXg4E4sNv89OZCC7-52" value="Erweiterbarkeit durch Flächenabdeckung des Kommunikationsnetzes" style="whiteSpace=wrap;html=1;fontSize=10;rounded=0;fontStyle=1;fillColor=#d5e8d4;strokeColor=#82b366;shadow=1;" vertex="1" parent="1">
          <mxGeometry x="600" y="260" width="120" height="40.03" as="geometry" />
        </mxCell>
        <mxCell id="Zl6-PXg4E4sNv89OZCC7-53" value="Interferenzen und Signalstörungen" style="whiteSpace=wrap;html=1;fontSize=14;rounded=0;fontStyle=1;fillColor=#f8cecc;strokeColor=#b85450;shadow=1;" vertex="1" parent="1">
          <mxGeometry x="200" y="260.03" width="120" height="40" as="geometry" />
        </mxCell>
        <mxCell id="Zl6-PXg4E4sNv89OZCC7-54" value="Begrenzte Reichweite" style="whiteSpace=wrap;html=1;fontSize=14;rounded=0;fontStyle=1;fillColor=#f8cecc;strokeColor=#b85450;shadow=1;" vertex="1" parent="1">
          <mxGeometry x="200" y="200.02999999999997" width="120" height="40" as="geometry" />
        </mxCell>
        <mxCell id="Zl6-PXg4E4sNv89OZCC7-55" value="Sicherheits-risiken" style="whiteSpace=wrap;html=1;fontSize=14;rounded=0;fontStyle=1;fillColor=#f8cecc;strokeColor=#b85450;shadow=1;" vertex="1" parent="1">
          <mxGeometry x="200" y="320.03" width="120" height="40" as="geometry" />
        </mxCell>
        <mxCell id="Zl6-PXg4E4sNv89OZCC7-56" value="" style="endArrow=none;html=1;rounded=0;strokeWidth=2;" edge="1" parent="1">
          <mxGeometry width="50" height="50" relative="1" as="geometry">
            <mxPoint x="120" y="400.03" as="sourcePoint" />
            <mxPoint x="740" y="400.03" as="targetPoint" />
          </mxGeometry>
        </mxCell>
        <mxCell id="Zl6-PXg4E4sNv89OZCC7-57" value="1" style="rounded=0;whiteSpace=wrap;html=1;strokeColor=none;fontSize=18;fontStyle=1;fillColor=none;" vertex="1" parent="1">
          <mxGeometry x="120" y="260.03" width="40" height="40" as="geometry" />
        </mxCell>
        <mxCell id="Zl6-PXg4E4sNv89OZCC7-58" value="+" style="rounded=0;whiteSpace=wrap;html=1;fillColor=none;strokeColor=none;" vertex="1" parent="1">
          <mxGeometry x="600" y="315.02" width="10" height="10" as="geometry" />
        </mxCell>
        <mxCell id="Zl6-PXg4E4sNv89OZCC7-59" value="+" style="rounded=0;whiteSpace=wrap;html=1;fillColor=none;strokeColor=none;" vertex="1" parent="1">
          <mxGeometry x="600" y="190" width="10" height="10" as="geometry" />
        </mxCell>
        <mxCell id="Zl6-PXg4E4sNv89OZCC7-60" value="+" style="rounded=0;whiteSpace=wrap;html=1;fillColor=none;strokeColor=none;" vertex="1" parent="1">
          <mxGeometry x="600" y="250.02999999999997" width="10" height="10" as="geometry" />
        </mxCell>
        <mxCell id="Zl6-PXg4E4sNv89OZCC7-61" value="-" style="rounded=0;whiteSpace=wrap;html=1;fillColor=none;strokeColor=none;fontSize=14;" vertex="1" parent="1">
          <mxGeometry x="200" y="310.03" width="10" height="10" as="geometry" />
        </mxCell>
        <mxCell id="Zl6-PXg4E4sNv89OZCC7-62" value="-" style="rounded=0;whiteSpace=wrap;html=1;fillColor=none;strokeColor=none;fontSize=14;" vertex="1" parent="1">
          <mxGeometry x="200" y="190.02999999999997" width="10" height="10" as="geometry" />
        </mxCell>
        <mxCell id="Zl6-PXg4E4sNv89OZCC7-63" value="-" style="rounded=0;whiteSpace=wrap;html=1;fillColor=none;strokeColor=none;fontSize=14;" vertex="1" parent="1">
          <mxGeometry x="200" y="250.02999999999997" width="10" height="10" as="geometry" />
        </mxCell>
        <mxCell id="Zl6-PXg4E4sNv89OZCC7-64" style="edgeStyle=orthogonalEdgeStyle;rounded=0;orthogonalLoop=1;jettySize=auto;html=1;exitX=0;exitY=0.5;exitDx=0;exitDy=0;entryX=1;entryY=0.5;entryDx=0;entryDy=0;curved=1;" edge="1" parent="1">
          <mxGeometry relative="1" as="geometry">
            <mxPoint x="400" y="519.99" as="sourcePoint" />
            <mxPoint x="320" y="519.99" as="targetPoint" />
          </mxGeometry>
        </mxCell>
        <mxCell id="Zl6-PXg4E4sNv89OZCC7-65" value="Reichweite durch Übertragungsmodul begrenzt" style="whiteSpace=wrap;html=1;fontSize=10;rounded=0;fontStyle=1;fillColor=#f8cecc;strokeColor=#b85450;shadow=1;" vertex="1" parent="1">
          <mxGeometry x="200" y="199.99999999999997" width="120" height="40" as="geometry" />
        </mxCell>
        <mxCell id="Zl6-PXg4E4sNv89OZCC7-66" value="Datenverlust durch Interferenzen und Signalstörungen" style="whiteSpace=wrap;html=1;fontSize=10;rounded=0;fontStyle=1;fillColor=#f8cecc;strokeColor=#b85450;shadow=1;" vertex="1" parent="1">
          <mxGeometry x="200" y="260" width="120" height="40" as="geometry" />
        </mxCell>
        <mxCell id="Zl6-PXg4E4sNv89OZCC7-67" value="Datenraub durch Dritte" style="whiteSpace=wrap;html=1;fontSize=10;rounded=0;fontStyle=1;fillColor=#f8cecc;strokeColor=#b85450;shadow=1;" vertex="1" parent="1">
          <mxGeometry x="200" y="320" width="120" height="40" as="geometry" />
        </mxCell>
        <mxCell id="Zl6-PXg4E4sNv89OZCC7-68" value="Elektromagnetische Interferenzen" style="whiteSpace=wrap;html=1;fontSize=10;rounded=0;fontStyle=1;fillColor=#f8cecc;strokeColor=#b85450;shadow=1;" vertex="1" parent="1">
          <mxGeometry x="200" y="439.97" width="120" height="40" as="geometry" />
        </mxCell>
        <mxCell id="Zl6-PXg4E4sNv89OZCC7-69" value="Wärme-entwicklung" style="whiteSpace=wrap;html=1;fontSize=10;rounded=0;fontStyle=1;fillColor=#f8cecc;strokeColor=#b85450;shadow=1;" vertex="1" parent="1">
          <mxGeometry x="200" y="499.97" width="120" height="40" as="geometry" />
        </mxCell>
        <mxCell id="Zl6-PXg4E4sNv89OZCC7-70" value="Begrenzter Raum" style="whiteSpace=wrap;html=1;fontSize=10;rounded=0;fontStyle=1;fillColor=#f8cecc;strokeColor=#b85450;shadow=1;" vertex="1" parent="1">
          <mxGeometry x="200" y="559.99" width="120" height="40" as="geometry" />
        </mxCell>
        <mxCell id="Zl6-PXg4E4sNv89OZCC7-71" value="Platzersparnis" style="whiteSpace=wrap;html=1;fontSize=10;rounded=0;fontStyle=1;fillColor=#d5e8d4;strokeColor=#82b366;shadow=1;" vertex="1" parent="1">
          <mxGeometry x="600" y="559.99" width="120" height="40" as="geometry" />
        </mxCell>
      </root>
    </mxGraphModel>
  </diagram>
</mxfile>
